<svg xmlns="http://www.w3.org/2000/svg" viewBox="0 0 412.4 99.28"><defs><style>.cls-1{fill:#231815;}.cls-2{fill:#38a1db;}</style></defs><title>1</title><g id="图层_2" data-name="图层 2"><g id="图层_1-2" data-name="图层 1"><path class="cls-1" d="M191.61,98.1V18.88h12.76V86.81h21.29V98.1Z"/><path class="cls-1" d="M306.16,98.1l-9.34-28.35L287.49,98.1h-14l16.06-40.86-14.81-38h14l8.08,26.36,8.09-26.36h14l-15.15,38,16.4,40.86Z"/><path class="cls-1" d="M75.17,18.27H64.33A16.11,16.11,0,0,0,48.22,34.38V82.74A16.11,16.11,0,0,0,64.33,98.85H75.17A16.12,16.12,0,0,0,91.29,82.74V34.38A16.12,16.12,0,0,0,75.17,18.27Zm4.27,62.4a7.17,7.17,0,0,1-7.18,7.18h-5a7.18,7.18,0,0,1-7.19-7.18V36.45a7.18,7.18,0,0,1,7.19-7.18h5a7.17,7.17,0,0,1,7.18,7.18Z"/><path class="cls-1" d="M258.71,19V80.67a7.18,7.18,0,0,1-7.18,7.18h-4.14a7.18,7.18,0,0,1-7.18-7.18V19H228.36V82.74a16.12,16.12,0,0,0,16.12,16.11h10a16.12,16.12,0,0,0,16.12-16.11V19Z"/><path class="cls-1" d="M111.53,98.05V36.57a7.19,7.19,0,0,1,7.19-7.18h4.13A7.18,7.18,0,0,1,130,36.57V98.05h11.85V34.51a16.12,16.12,0,0,0-16.12-16.12h-10A16.12,16.12,0,0,0,99.69,34.51V98.05Z"/><path class="cls-1" d="M42.27,34.25A16.12,16.12,0,0,0,26.16,18.13h-10A16.12,16.12,0,0,0,0,34.25V82.74A16.12,16.12,0,0,0,16.12,98.85h10A16.11,16.11,0,0,0,42.27,82.74v-7H30.91a43.46,43.46,0,0,1-.52,5.61,7.18,7.18,0,0,1-7.15,6.5H19a7.17,7.17,0,0,1-7.18-7.18V36.32A7.18,7.18,0,0,1,19,29.13h4.21a7.2,7.2,0,0,1,6.54,4.21c.55.74,1,3.81,1.14,7.81H42.27Z"/><path class="cls-1" d="M184.86,18.88h-25.2a8.87,8.87,0,0,0-8.85,8.37V98.11h12.76V63.67H181.9V52.38H163.57V35.81l.05,0c0-4.36,1.16-5.69,5.69-5.69h15.55Z"/><polygon class="cls-1" points="392.51 59.6 372.71 79.41 362.86 69.56 382.67 49.75 372.78 39.87 342.98 69.67 372.59 99.28 402.39 69.48 392.51 59.6"/><polygon class="cls-2" points="412.4 39.46 372.94 0 333.21 39.73 333.34 59.41 372.76 19.99 412.33 59.56 412.4 39.46"/></g></g></svg>